<svg width="504" height="474" viewBox="0 0 504 474" fill="none" xmlns="http://www.w3.org/2000/svg">
<path d="M402.21 324.92L297.27 220.2L401.2 116.15L421.192 106.966C422.395 106.416 423.45 105.591 424.274 104.556L469.075 48.1072L469.071 48.1111C471.755 44.7673 471.489 39.9392 468.458 36.9081L434.466 3.0291C431.45 -0.0216956 426.622 -0.310694 423.267 2.35723L367.826 46.0912V46.0951C366.826 46.892 366.021 47.9076 365.474 49.0599L355.283 70.2279L251.463 174.168L182.807 105.625C186.534 91.9999 186.546 77.6289 182.842 64.0039C179.139 50.3749 171.858 37.9839 161.748 28.1209C150.225 16.1799 135.197 8.22293 118.842 5.40193C102.49 2.58163 85.6624 5.04646 70.8074 12.441C68.4715 13.6988 66.866 15.9879 66.4832 18.6129C66.0965 21.2379 66.9715 23.8902 68.8465 25.7691L105.748 62.6711L93.2055 75.2731L56.3035 38.3711V38.3672C54.4246 36.4922 51.7723 35.6172 49.1473 36.0039C46.5223 36.3906 44.2332 37.9922 42.9754 40.3281C35.5692 55.1911 33.0965 72.0311 35.9168 88.3941C38.7371 104.761 46.7018 119.8 58.6548 131.328C68.5025 141.48 80.8928 148.801 94.5338 152.535C108.179 156.27 122.569 156.273 136.214 152.551L183.757 200.094L172.558 211.293V211.297C169.284 214.574 169.284 219.886 172.558 223.168C174.452 225.004 175.589 227.48 175.749 230.113C175.866 232.183 175.116 234.211 173.679 235.711C172.187 237.16 170.155 237.91 168.077 237.785C165.444 237.629 162.968 236.488 161.136 234.593C159.456 232.937 157.159 232.062 154.808 232.183C152.581 232.187 150.444 233.07 148.87 234.648L17.2103 366.528C6.5933 377.63 0.612289 392.364 0.487289 407.723C0.362289 423.082 6.10449 437.911 16.5383 449.184C28.2763 462.582 44.9993 470.579 62.7963 471.305H64.5893C79.2573 471.473 93.3823 465.743 103.788 455.399L236.788 322.349C240.062 319.068 240.062 313.755 236.788 310.478C234.902 308.638 233.761 306.162 233.597 303.533C233.476 301.459 234.226 299.431 235.667 297.935C239.523 294.783 245.187 295.283 248.437 299.052C251.714 302.33 257.027 302.33 260.308 299.052L271.507 287.853L355.507 371.853C351.777 385.474 351.761 399.849 355.464 413.478C359.167 427.107 366.452 439.498 376.562 449.357C391.667 464.584 412.179 473.216 433.628 473.38C445.343 473.4 456.882 470.533 467.226 465.036C469.562 463.779 471.168 461.49 471.554 458.865C471.937 456.24 471.062 453.587 469.187 451.708L432.339 414.806L444.941 402.204L481.843 439.052C483.722 440.927 486.374 441.806 488.999 441.42C491.624 441.033 493.913 439.427 495.171 437.095C510.964 408.251 504.468 370.845 479.605 346.15C469.777 336.017 457.417 328.705 443.804 324.974C430.195 321.24 415.831 321.224 402.21 324.927L402.21 324.92ZM368.218 81.1C368.886 80.4281 369.433 79.6547 369.843 78.8031L379.812 58.0841L427.859 20.1741L451.211 43.5261L412.012 92.5261L392.524 101.487V101.483C391.629 101.897 390.813 102.464 390.118 103.163L279.458 214.043L257.505 235.996L235.443 213.934L257.392 192.204L368.218 81.1ZM135.368 135.08C124.18 138.994 112.098 139.596 100.579 136.814C89.056 134.033 78.579 127.99 70.407 119.4C54.356 103.81 47.825 80.8494 53.274 59.1464L86.876 92.7484L86.8721 92.7445C90.1533 96.0218 95.4659 96.0218 98.7431 92.7445L123.216 68.2715V68.2754C126.493 64.9942 126.493 59.6816 123.216 56.4004L89.6141 22.7984L89.618 22.8023C111.321 17.357 134.282 23.8843 149.872 39.9393C158.45 48.1151 164.485 58.5913 167.259 70.1153C170.029 81.6383 169.419 93.7133 165.497 104.896C164.329 107.982 165.072 111.467 167.4 113.803L239.588 186.041L223.572 202.057L222.564 201.049H222.56C221.333 199.838 220.001 198.732 218.587 197.744L217.466 197.017C216.111 196.139 214.689 195.369 213.208 194.721C211.669 194.099 210.076 193.611 208.451 193.267H207.275C205.704 192.959 204.111 192.791 202.513 192.764H199.603L144.048 137.209C141.806 134.892 138.431 134.064 135.368 135.08L135.368 135.08ZM259.748 275.64L253.365 281.8C248.65 279.226 243.24 278.218 237.912 278.921C232.588 279.624 227.623 282.007 223.74 285.718C218.893 290.605 216.365 297.331 216.799 304.198C216.994 308.112 218.045 311.936 219.877 315.397L91.8569 443.527C84.3413 451.117 73.9699 455.183 63.2979 454.726C50.1179 454.156 37.7509 448.207 29.0789 438.265C21.5008 430.195 17.2819 419.542 17.2819 408.472C17.2819 397.402 21.5007 386.749 29.0789 378.679L155.919 251.559C159.388 253.372 163.208 254.403 167.118 254.586C173.962 254.997 180.657 252.458 185.509 247.61C190.357 242.758 192.9 236.063 192.486 229.215C192.29 225.301 191.239 221.48 189.404 218.016L195.732 211.688C196.732 210.703 197.966 209.989 199.318 209.617C203.372 208.668 207.626 209.922 210.517 212.922L221.271 223.676L251.564 253.801L258.509 260.746V260.743C261.536 263.618 262.798 267.887 261.814 271.946C261.446 273.332 260.735 274.606 259.739 275.641L259.748 275.64ZM485.208 418.21L451.606 384.608L451.61 384.612C448.329 381.335 443.016 381.335 439.735 384.612L415.262 409.085H415.266C411.989 412.362 411.989 417.675 415.266 420.956L448.868 454.558L448.864 454.554C438.18 457.277 426.969 457.128 416.36 454.128C405.751 451.132 396.118 445.386 388.442 437.476C379.864 429.297 373.829 418.82 371.055 407.296C368.285 395.776 368.895 383.698 372.817 372.515C373.985 369.433 373.239 365.949 370.91 363.613L278.961 271.66V270.262V269.086C279.004 268.187 279.004 267.293 278.961 266.394V265.668C278.805 264.535 278.583 263.414 278.29 262.308L278.008 261.355C278.008 260.515 277.504 259.73 277.168 258.949L276.665 257.828C276.329 257.101 275.993 256.43 275.602 255.758L274.985 254.637C274.536 253.91 274.09 253.238 273.586 252.566L272.915 251.672L272.911 251.668C272.165 250.707 271.36 249.789 270.504 248.926L269.887 248.195L269.383 247.691L285.399 231.675L394.039 340.315C396.375 342.643 399.86 343.386 402.946 342.218C414.13 338.3 426.204 337.686 437.727 340.46C449.25 343.229 459.727 349.264 467.903 357.843C475.844 365.495 481.626 375.105 484.665 385.702C487.704 396.304 487.891 407.514 485.208 418.21L485.208 418.21Z" fill="black"/>
</svg>
