<?xml version="1.0" encoding="UTF-8"?>
<svg width="700pt" height="700pt" version="1.1" viewBox="0 0 700 700" xmlns="http://www.w3.org/2000/svg">
 <path d="m305.73 33.199c7.2148-14.078 16.41-23.695 26.426-28.805 5.7461-2.9297 11.727-4.3945 17.773-4.3945s12.027 1.4648 17.773 4.3945c10.016 5.1094 19.211 14.727 26.426 28.805l275.79 466.14-0.015625 0.007812c6.2969 10.5 9.332 20.27 9.3008 28.801-0.023437 5.5156-1.2578 10.5-3.668 14.863-2.4844 4.5-6.1094 8.2148-10.828 11.051-6.4062 3.8477-14.828 5.918-25.09 5.8828v0.046875h-579.36l-0.48047-0.046875c-10.453-0.42578-18.965-3.1992-25.34-7.6758-4.6562-3.2734-8.168-7.418-10.492-12.23-2.2891-4.7461-3.3398-10.008-3.1133-15.594 0.32812-8.125 3.3984-16.883 9.3516-25.496l275.56-465.75zm64.176 157.96c0 6.2383-2.0352 27.113-6.1719 62.629-4.0742 35.578-7.7031 69.949-10.82 103.11h-14.512c-2.7383-33.16-6.1094-67.531-10.184-103.11-4.0117-35.516-6.0469-56.391-6.0469-62.629 0-7.0664 2.2266-13.047 6.6836-17.887 4.5195-4.9023 10.184-7.3203 17.184-7.3203 6.9375 0 12.664 2.418 17.121 7.1914 4.5195 4.7734 6.7461 10.82 6.7461 18.012zm1.6562 224.87c0 6.9375-2.4805 12.922-7.5117 17.82-5.0898 4.9023-11.074 7.3828-18.012 7.3828-7 0-12.984-2.4805-18.012-7.3828s-7.5742-10.883-7.5742-17.82 2.5469-12.984 7.5742-18.012 11.012-7.5117 18.012-7.5117c6.9375 0 12.922 2.4805 18.012 7.5117 5.0273 5.0273 7.5117 11.074 7.5117 18.012zm-28.262-389.73c-5.5391 2.8242-10.992 8.8828-15.754 18.219l-0.38281 0.67188-276.08 466.64-0.52734 0.81641c-3.3711 4.7969-5.0859 9.1602-5.2305 12.762-0.0625 1.5234 0.17969 2.8633 0.71094 3.9688 0.5 1.0352 1.3398 1.9883 2.5156 2.8164 2.5703 1.8086 6.4688 2.9648 11.695 3.2344v-0.027343h579.36l0.046874 0.046874c5.6406 0.023438 9.8008-0.83203 12.453-2.4258 0.88281-0.53125 1.5156-1.1445 1.8945-1.8281 0.45312-0.82031 0.6875-1.875 0.69141-3.1445 0.015625-4.1055-1.9023-9.5625-5.875-16.176l-0.046875-0.046875-276.08-466.64-0.38281-0.67188c-4.7617-9.3398-10.219-15.395-15.754-18.219-2.2305-1.1367-4.4609-1.707-6.6289-1.707s-4.3984 0.57031-6.6289 1.707z" fill="#0a0a0b"/>
</svg>
